<svg width="340" height="340" viewBox="0 0 340 340" fill="none" xmlns="http://www.w3.org/2000/svg">
<path d="M132.97 202.418C135.035 198.858 134.448 194.354 131.537 191.444L34.7521 94.6587C31.2072 91.1138 25.4597 91.1138 21.9148 94.6587L2.65871 113.915C-0.886233 117.46 -0.886237 123.207 2.6587 126.752L37.9614 162.055C41.5064 165.6 41.5064 171.347 37.9614 174.892L2.65873 210.195C-0.886222 213.739 -0.88623 219.487 2.65872 223.032L21.9148 242.288C25.4597 245.833 31.2072 245.833 34.7521 242.288L70.0549 206.985C73.5998 203.44 79.3473 203.44 82.8922 206.985L111.32 235.413C119.831 243.925 131.376 248.706 143.413 248.706H196.587C208.624 248.706 220.169 243.925 228.68 235.413L257.108 206.985C260.653 203.44 266.4 203.44 269.945 206.985L305.248 242.288C308.793 245.833 314.54 245.833 318.085 242.288L337.341 223.032C340.886 219.487 340.886 213.74 337.341 210.195L302.039 174.892C298.494 171.347 298.494 165.6 302.039 162.055L337.341 126.752C340.886 123.207 340.886 117.46 337.341 113.915L318.085 94.6587C314.54 91.1138 308.793 91.1138 305.248 94.6587L208.462 191.444C205.552 194.355 204.964 198.859 207.03 202.419L209.687 206.999L193.324 216.446L188.331 207.841C186.707 205.042 183.715 203.32 180.479 203.32H159.52C156.284 203.32 153.293 205.042 151.668 207.841L146.675 216.446L130.312 206.999L132.97 202.418Z" fill="white"/>
</svg>
